<?xml version="1.0" encoding="utf-8"?>
<!-- Generator: Adobe Illustrator 16.0.0, SVG Export Plug-In . SVG Version: 6.00 Build 0)  -->
<!DOCTYPE svg PUBLIC "-//W3C//DTD SVG 1.1//EN" "http://www.w3.org/Graphics/SVG/1.1/DTD/svg11.dtd">
<svg version="1.1" id="Layer_1" xmlns="http://www.w3.org/2000/svg" xmlns:xlink="http://www.w3.org/1999/xlink" x="0px" y="0px"
	 width="170px" height="185px" viewBox="0 0 170 185" enable-background="new 0 0 170 185" xml:space="preserve">
<g>
	<circle fill="#4D4E53" cx="85.924" cy="93.069" r="9.124"/>
	<path fill="#4D4E53" d="M85.924,77.316c-8.687,0-15.753,7.065-15.753,15.752c0,8.688,7.066,15.755,15.753,15.755
		s15.754-7.067,15.754-15.755C101.678,84.384,94.61,77.316,85.924,77.316z M85.924,106.671c-7.499,0-13.601-6.103-13.601-13.603
		c0-7.499,6.102-13.601,13.601-13.601c7.498,0,13.6,6.104,13.6,13.601C99.523,100.569,93.422,106.671,85.924,106.671z"/>
	<path fill="#4D4E53" d="M85.46,67.135c-30.311,0-46.992,25.73-46.992,25.73s16.682,26.578,46.992,26.578
		c30.315,0,47.059-26.578,47.059-26.578S115.775,67.136,85.46,67.135z M85.924,117.402c-13.388,0-24.278-10.84-24.278-24.228
		S72.536,69,85.924,69c0.001,0,0.001,0,0.002,0c6.484,0,12.581,2.433,17.167,7.019c4.585,4.586,7.11,10.591,7.11,17.076
		C110.203,106.481,99.312,117.4,85.924,117.402z M123.026,100.132c-0.228,0.243-0.573,0.36-0.922,0.36
		c-0.896,0-1.812-0.771-0.81-2.165c2.141-2.979,1.104-6.399-0.655-9.081c-0.886-1.349-0.142-3,0.929-3
		c0.302,0,0.629,0.13,0.952,0.435c1.074,1.013,1.217,2.098,3.611,4.387c2.111,2.022,2.189,2.983,0.635,4.392
		C125.029,97.029,124.282,98.788,123.026,100.132z"/>
</g>
<g>
	<g>
		<path fill="#4D4E53" d="M85.738,131.423c-0.599,0-1.084-0.485-1.084-1.084v-5.072c0-0.599,0.485-1.084,1.084-1.084
			s1.084,0.485,1.084,1.084v5.072C86.822,130.938,86.337,131.423,85.738,131.423z"/>
	</g>
	<g>
		<path fill="#4D4E53" d="M74.76,130.175c-0.093,0-0.188-0.012-0.281-0.038c-0.579-0.155-0.922-0.749-0.768-1.328l1.312-4.899
			c0.155-0.579,0.75-0.924,1.328-0.767c0.579,0.155,0.922,0.749,0.768,1.328l-1.312,4.899
			C75.677,129.855,75.238,130.175,74.76,130.175z"/>
	</g>
	<g>
		<path fill="#4D4E53" d="M63.85,126.417c-0.184,0-0.37-0.047-0.541-0.145c-0.519-0.299-0.696-0.962-0.397-1.481l2.534-4.393
			c0.3-0.519,0.961-0.696,1.481-0.397c0.519,0.299,0.696,0.962,0.397,1.481l-2.534,4.393
			C64.589,126.222,64.225,126.417,63.85,126.417z"/>
	</g>
	<g>
		<path fill="#4D4E53" d="M54.936,121.198c-0.277,0-0.555-0.106-0.767-0.317c-0.424-0.423-0.424-1.11-0.001-1.534l3.584-3.588
			c0.424-0.424,1.11-0.423,1.534,0c0.424,0.423,0.424,1.11,0.001,1.534l-3.584,3.588C55.491,121.092,55.213,121.198,54.936,121.198z
			"/>
	</g>
	<g>
		<g>
			<path fill="#4D4E53" d="M97.131,130.175c-0.479,0-0.917-0.32-1.047-0.804l-1.312-4.899c-0.154-0.579,0.188-1.173,0.768-1.328
				c0.577-0.158,1.173,0.188,1.328,0.767l1.312,4.899c0.154,0.579-0.188,1.173-0.768,1.328
				C97.318,130.163,97.224,130.175,97.131,130.175z"/>
		</g>
		<g>
			<path fill="#4D4E53" d="M108.039,126.417c-0.375,0-0.739-0.194-0.94-0.542l-2.535-4.393c-0.299-0.519-0.121-1.182,0.397-1.481
				c0.521-0.299,1.182-0.121,1.481,0.397l2.535,4.393c0.299,0.519,0.121,1.182-0.397,1.481
				C108.409,126.37,108.223,126.417,108.039,126.417z"/>
		</g>
		<g>
			<path fill="#4D4E53" d="M116.954,121.198c-0.277,0-0.556-0.106-0.767-0.318l-3.586-3.588c-0.424-0.424-0.424-1.11,0-1.534
				c0.424-0.423,1.111-0.423,1.533,0l3.586,3.588c0.424,0.424,0.424,1.11,0,1.534C117.509,121.092,117.231,121.198,116.954,121.198z
				"/>
		</g>
	</g>
</g>
<g>
	<g>
		<path fill="#4D4E53" d="M85.738,60.915c-0.599,0-1.084-0.485-1.084-1.084v-5.071c0-0.599,0.485-1.084,1.084-1.084
			s1.084,0.485,1.084,1.084v5.071C86.822,60.429,86.337,60.915,85.738,60.915z"/>
	</g>
	<g>
		<path fill="#4D4E53" d="M76.069,61.991c-0.479,0-0.917-0.32-1.047-0.805l-1.312-4.899c-0.154-0.579,0.188-1.173,0.768-1.328
			c0.578-0.156,1.173,0.188,1.328,0.767l1.312,4.899c0.154,0.579-0.188,1.173-0.768,1.328
			C76.257,61.979,76.162,61.991,76.069,61.991z"/>
	</g>
	<g>
		<path fill="#4D4E53" d="M66.386,65.242c-0.375,0-0.739-0.194-0.94-0.542l-2.534-4.393c-0.299-0.519-0.121-1.182,0.397-1.481
			c0.521-0.299,1.182-0.121,1.481,0.397l2.534,4.393c0.299,0.519,0.121,1.182-0.397,1.481
			C66.756,65.195,66.569,65.242,66.386,65.242z"/>
	</g>
	<g>
		<path fill="#4D4E53" d="M58.52,69.656c-0.277,0-0.556-0.106-0.768-0.318l-3.584-3.587c-0.423-0.424-0.423-1.11,0.001-1.534
			c0.424-0.423,1.11-0.423,1.534,0l3.584,3.587c0.423,0.424,0.423,1.11-0.001,1.534C59.074,69.55,58.797,69.656,58.52,69.656z"/>
	</g>
	<g>
		<g>
			<path fill="#4D4E53" d="M95.82,61.991c-0.093,0-0.188-0.012-0.281-0.038c-0.579-0.155-0.922-0.75-0.768-1.328l1.312-4.899
				c0.155-0.579,0.751-0.922,1.328-0.767c0.579,0.155,0.922,0.75,0.768,1.328l-1.312,4.899
				C96.737,61.671,96.299,61.991,95.82,61.991z"/>
		</g>
		<g>
			<path fill="#4D4E53" d="M105.502,65.242c-0.184,0-0.37-0.047-0.541-0.145c-0.519-0.3-0.696-0.963-0.397-1.481l2.535-4.393
				c0.3-0.519,0.962-0.696,1.481-0.397c0.519,0.3,0.696,0.963,0.397,1.481l-2.535,4.393
				C106.241,65.047,105.877,65.242,105.502,65.242z"/>
		</g>
		<g>
			<path fill="#4D4E53" d="M113.368,69.656c-0.277,0-0.555-0.106-0.767-0.317c-0.424-0.424-0.424-1.11,0-1.534l3.586-3.587
				c0.422-0.424,1.109-0.423,1.533,0c0.424,0.424,0.424,1.11,0,1.534l-3.586,3.587C113.924,69.55,113.646,69.656,113.368,69.656z"/>
		</g>
	</g>
</g>
<g>
	<path fill="#4D4E53" d="M85.476,161.814c-19.356,0-38.164-7.537-52.958-21.222c-0.507-0.469-0.538-1.26-0.069-1.766
		c0.47-0.507,1.26-0.538,1.767-0.069c14.331,13.256,32.536,20.557,51.261,20.557c18.633,0,36.769-7.238,51.066-20.38
		c0.508-0.466,1.299-0.435,1.766,0.075c0.468,0.508,0.435,1.299-0.074,1.766C123.474,154.342,104.736,161.814,85.476,161.814z"/>
</g>
<g>
	<path fill="#4D4E53" d="M33.366,46.672c-0.336,0-0.671-0.135-0.918-0.401c-0.469-0.507-0.438-1.297,0.069-1.766
		C47.312,30.82,66.119,23.283,85.476,23.282c19.261,0,37.998,7.472,52.758,21.04c0.509,0.467,0.542,1.258,0.074,1.766
		c-0.467,0.51-1.258,0.542-1.766,0.075c-14.298-13.143-32.434-20.38-51.066-20.38c-18.725,0.001-36.93,7.302-51.261,20.557
		C33.975,46.562,33.67,46.672,33.366,46.672z"/>
</g>
</svg>
