<?xml version="1.0" encoding="utf-8"?>
<!-- Generator: Adobe Illustrator 16.0.0, SVG Export Plug-In . SVG Version: 6.00 Build 0)  -->
<!DOCTYPE svg PUBLIC "-//W3C//DTD SVG 1.1//EN" "http://www.w3.org/Graphics/SVG/1.1/DTD/svg11.dtd">
<svg version="1.1" id="Layer_1" xmlns="http://www.w3.org/2000/svg" xmlns:xlink="http://www.w3.org/1999/xlink" x="0px" y="0px"
	 width="125px" height="103px" viewBox="0 0 125 103" enable-background="new 0 0 125 103" xml:space="preserve">
<g>
	<path fill="#4D4E53" d="M61.45,25.135c-30.311,0-46.992,25.73-46.992,25.73S31.14,77.443,61.45,77.443
		c30.315,0,47.059-26.578,47.059-26.578S91.766,25.136,61.45,25.135z M61.914,75.402c-13.388,0-24.278-10.84-24.278-24.228
		S48.526,27,61.914,27c0.001,0,0.001,0,0.002,0c6.484,0,12.581,2.433,17.167,7.019c4.585,4.586,7.11,10.591,7.11,17.076
		C86.193,64.481,75.302,75.4,61.914,75.402z M99.017,58.132c-0.228,0.243-0.573,0.36-0.922,0.36c-0.896,0-1.812-0.771-0.81-2.165
		c2.141-2.979,1.104-6.399-0.655-9.081c-0.886-1.349-0.142-3,0.929-3c0.302,0,0.629,0.13,0.952,0.435
		c1.074,1.013,1.217,2.098,3.611,4.387c2.111,2.022,2.189,2.983,0.635,4.392C101.02,55.029,100.272,56.788,99.017,58.132z"/>
</g>
<g>
	<g>
		<path fill="#4D4E53" d="M61.729,89.423c-0.599,0-1.084-0.485-1.084-1.084v-5.072c0-0.599,0.485-1.084,1.084-1.084
			s1.084,0.485,1.084,1.084v5.072C62.812,88.938,62.327,89.423,61.729,89.423z"/>
	</g>
	<g>
		<path fill="#4D4E53" d="M50.75,88.175c-0.093,0-0.188-0.012-0.281-0.038c-0.579-0.155-0.922-0.749-0.768-1.328l1.312-4.899
			c0.155-0.579,0.75-0.924,1.328-0.767c0.579,0.155,0.922,0.749,0.768,1.328l-1.312,4.899C51.667,87.855,51.229,88.175,50.75,88.175
			z"/>
	</g>
	<g>
		<path fill="#4D4E53" d="M39.84,84.417c-0.184,0-0.37-0.047-0.541-0.145c-0.519-0.299-0.696-0.962-0.397-1.481l2.534-4.393
			c0.3-0.519,0.961-0.696,1.481-0.397c0.519,0.299,0.696,0.962,0.397,1.481l-2.534,4.393C40.579,84.222,40.215,84.417,39.84,84.417z
			"/>
	</g>
	<g>
		<path fill="#4D4E53" d="M30.926,79.198c-0.277,0-0.555-0.106-0.767-0.317c-0.424-0.423-0.424-1.11-0.001-1.534l3.584-3.588
			c0.424-0.424,1.11-0.423,1.534,0c0.424,0.423,0.424,1.11,0.001,1.534l-3.584,3.588C31.481,79.092,31.203,79.198,30.926,79.198z"/>
	</g>
	<g>
		<g>
			<path fill="#4D4E53" d="M73.121,88.175c-0.479,0-0.917-0.32-1.047-0.804l-1.312-4.899c-0.154-0.579,0.188-1.173,0.768-1.328
				c0.577-0.158,1.173,0.188,1.328,0.767l1.312,4.899c0.154,0.579-0.188,1.173-0.768,1.328
				C73.309,88.163,73.214,88.175,73.121,88.175z"/>
		</g>
		<g>
			<path fill="#4D4E53" d="M84.029,84.417c-0.375,0-0.739-0.194-0.94-0.542l-2.535-4.393C80.255,78.963,80.433,78.3,80.951,78
				c0.521-0.299,1.182-0.121,1.481,0.397l2.535,4.393c0.299,0.519,0.121,1.182-0.397,1.481
				C84.399,84.37,84.213,84.417,84.029,84.417z"/>
		</g>
		<g>
			<path fill="#4D4E53" d="M92.944,79.198c-0.277,0-0.556-0.106-0.767-0.318l-3.586-3.588c-0.424-0.424-0.424-1.11,0-1.534
				c0.424-0.423,1.111-0.423,1.533,0l3.586,3.588c0.424,0.424,0.424,1.11,0,1.534C93.499,79.092,93.222,79.198,92.944,79.198z"/>
		</g>
	</g>
</g>
<g>
	<g>
		<path fill="#4D4E53" d="M61.729,18.915c-0.599,0-1.084-0.485-1.084-1.084v-5.071c0-0.599,0.485-1.084,1.084-1.084
			s1.084,0.485,1.084,1.084v5.071C62.812,18.429,62.327,18.915,61.729,18.915z"/>
	</g>
	<g>
		<path fill="#4D4E53" d="M52.06,19.991c-0.479,0-0.917-0.32-1.047-0.805l-1.312-4.899c-0.154-0.579,0.188-1.173,0.768-1.328
			c0.578-0.156,1.173,0.188,1.328,0.767l1.312,4.899c0.154,0.579-0.188,1.173-0.768,1.328C52.247,19.979,52.152,19.991,52.06,19.991
			z"/>
	</g>
	<g>
		<path fill="#4D4E53" d="M42.376,23.242c-0.375,0-0.739-0.194-0.94-0.542l-2.534-4.393c-0.299-0.519-0.121-1.182,0.397-1.481
			c0.521-0.299,1.182-0.121,1.481,0.397l2.534,4.393c0.299,0.519,0.121,1.182-0.397,1.481C42.746,23.195,42.56,23.242,42.376,23.242
			z"/>
	</g>
	<g>
		<path fill="#4D4E53" d="M34.51,27.656c-0.277,0-0.556-0.106-0.768-0.318l-3.584-3.587c-0.423-0.424-0.423-1.11,0.001-1.534
			c0.424-0.423,1.11-0.423,1.534,0l3.584,3.587c0.423,0.424,0.423,1.11-0.001,1.534C35.064,27.55,34.787,27.656,34.51,27.656z"/>
	</g>
	<g>
		<g>
			<path fill="#4D4E53" d="M71.811,19.991c-0.093,0-0.188-0.012-0.281-0.038c-0.579-0.155-0.922-0.75-0.768-1.328l1.312-4.899
				c0.155-0.579,0.751-0.922,1.328-0.767c0.579,0.155,0.922,0.75,0.768,1.328l-1.312,4.899
				C72.728,19.671,72.289,19.991,71.811,19.991z"/>
		</g>
		<g>
			<path fill="#4D4E53" d="M81.492,23.242c-0.184,0-0.37-0.047-0.541-0.145c-0.519-0.3-0.696-0.963-0.397-1.481l2.535-4.393
				c0.3-0.519,0.962-0.696,1.481-0.397c0.519,0.3,0.696,0.963,0.397,1.481l-2.535,4.393C82.231,23.047,81.867,23.242,81.492,23.242z
				"/>
		</g>
		<g>
			<path fill="#4D4E53" d="M89.358,27.656c-0.277,0-0.555-0.106-0.767-0.317c-0.424-0.424-0.424-1.11,0-1.534l3.586-3.587
				c0.422-0.424,1.109-0.423,1.533,0c0.424,0.424,0.424,1.11,0,1.534l-3.586,3.587C89.914,27.55,89.636,27.656,89.358,27.656z"/>
		</g>
	</g>
</g>
</svg>
